<?xml version="1.0" standalone="no"?>
<!DOCTYPE svg PUBLIC "-//W3C//DTD SVG 20010904//EN"
 "http://www.w3.org/TR/2001/REC-SVG-20010904/DTD/svg10.dtd">
<svg version="1.0" xmlns="http://www.w3.org/2000/svg"
 width="267.000000pt" height="267.000000pt" viewBox="0 0 267.000000 267.000000"
 preserveAspectRatio="xMidYMid meet">
<metadata>
Created by potrace 1.11, written by Peter Selinger 2001-2013
</metadata>
<g transform="translate(0.000000,267.000000) scale(0.100000,-0.100000)"
fill="#000000" stroke="none">
<path d="M20 1355 l0 -1305 1305 0 1304 0 3 62 c2 35 2 622 0 1306 l-2 1242
-1305 0 -1305 0 0 -1305z m2600 0 l0 -1295 -1295 0 -1295 0 0 1295 0 1295
1295 0 1295 0 0 -1295z"/>
<path d="M1416 2580 c-1 -3 -2 -261 -2 -575 l1 -570 578 -2 577 -1 0 574 c0
316 -3 575 -7 575 -25 4 -1145 3 -1147 -1z"/>
<path d="M105 711 c0 -313 3 -573 7 -576 5 -6 904 -10 1115 -6 l32 1 0 575 0
575 -577 0 -577 0 0 -569z"/>
<path d="M1410 698 l0 -578 575 0 c453 0 575 3 576 13 4 60 3 1137 -1 1138 -3
1 -263 2 -577 3 l-573 1 0 -577z"/>
</g>
</svg>
