<?xml version="1.0" encoding="utf-8"?>
<!-- Generator: Adobe Illustrator 22.0.0, SVG Export Plug-In . SVG Version: 6.00 Build 0)  -->
<svg version="1.1" id="Слой_1" xmlns="http://www.w3.org/2000/svg" xmlns:xlink="http://www.w3.org/1999/xlink" x="0px" y="0px"
	 viewBox="0 0 192.6 191.6" style="enable-background:new 0 0 192.6 191.6;" xml:space="preserve">
<style type="text/css">
	.st0{fill:#FDB110;}
	.st1{fill:#FDFDFD;}
	.st2{fill:#FDAD04;}
</style>
<path class="st0" d="M192.5-0.1c0,63.9,0,127.8,0,192c-64,0-128,0-192,0c0-63.9,0-127.8,0-192C64.9-0.1,128.7-0.1,192.5-0.1z
	 M4.4,187.9c61.7,0,122.9,0,184.1,0c0-61.5,0-122.7,0-183.9C127,4,65.8,4,4.4,4C4.4,65.4,4.4,126.5,4.4,187.9z"/>
<path class="st1" d="M71.5,131.2c-5.2,2.1-8.9,5.8-11,11c0-3.7,0-7.3,0-11C64.2,131.2,67.8,131.2,71.5,131.2z"/>
<g>
	<path class="st2" d="M83.3,114.3c-15-11.5-17.1-33.1-3.7-47.4c9.8-10.4,20-20.6,30.4-30.4c13-12.2,32.6-11.6,45.1,1
		c12.4,12.4,13,31.8,1,44.7c-6.6,7.1-13.7,13.6-20.5,20.2c-1.1-4.9-2.3-9.9-3.2-14.9c-0.2-1.1,0.6-2.7,1.5-3.7
		c3.5-3.7,7.2-7.2,10.7-10.8c7.2-7.5,7.1-18.1-0.2-25.2c-7.1-7-17.6-7-24.9,0.2c-9.3,9.1-18.5,18.4-27.7,27.7
		c-8.7,8.8-8.3,19.3,1.1,27.6c0.4,0.4,0.8,0.8,1.4,1.3C90.6,107.7,87.1,110.8,83.3,114.3z"/>
	<path class="st2" d="M98.8,87.1c3.6-3.5,6.9-6.8,10.2-10c13.4,7.9,19.2,30.9,5.9,45.9c-10.5,11.8-21.8,22.9-33.5,33.5
		c-11.9,10.8-30.5,9.7-42.4-1.4c-12.1-11.3-14.5-29.8-4.4-42.6c6.8-8.6,15-15.9,22.8-24c1.2,5.6,2.5,10.6,3.4,15.6
		c0.2,1.1-0.6,2.8-1.4,3.7c-3.5,3.7-7.2,7.2-10.7,10.8c-7.2,7.5-7.2,18.1,0.1,25.3c7.1,7,17.6,7,24.9-0.1
		c9.3-9.1,18.5-18.4,27.7-27.7c8.8-8.8,8.3-19.3-1-27.6C99.9,88.2,99.5,87.8,98.8,87.1z"/>
</g>
</svg>
