<?xml version="1.0" encoding="utf-8"?>
<!-- Generator: Adobe Illustrator 22.0.0, SVG Export Plug-In . SVG Version: 6.00 Build 0)  -->
<svg version="1.1" id="Слой_1" xmlns="http://www.w3.org/2000/svg" xmlns:xlink="http://www.w3.org/1999/xlink" x="0px" y="0px"
	 viewBox="0 0 191.6 193" style="enable-background:new 0 0 191.6 193;" xml:space="preserve">
<style type="text/css">
	.st0{fill:#FEFEFD;}
	.st1{fill:#FDB110;}
	.st2{fill:#FDAE04;}
	.st3{fill:#FDAE05;}
	.st4{fill:#FDAD02;}
	.st5{fill:#FDAC00;}
	.st6{fill:#FDB10D;}
</style>
<path class="st0" d="M1,2c0,61.7,0,123.4-0.1,185.1c0,3.5,1.1,4.6,4.6,4.6c62.2-0.1,124.4-0.1,186.6-0.1c-1.3,0.3-2.5,0.9-3.8,0.9
	c-62.6,0-125.3,0-188.2,0c0-2.4,0-4.9,0-7.3c0-59.8,0-119.6,0-179.4C0.1,4.5,0.7,3.3,1,2z"/>
<g>
	<path class="st1" d="M192,0.5c0,63.9,0,127.8,0,192c-64,0-128,0-192,0c0-63.9,0-127.8,0-192C64.4,0.5,128.2,0.5,192,0.5z
		 M3.9,188.5c61.7,0,122.9,0,184.1,0c0-61.5,0-122.7,0-183.9c-61.5,0-122.7,0-184.1,0C3.9,66,3.9,127.1,3.9,188.5z"/>
	<g>
		<path class="st2" d="M89.9,148.8c-0.8,0.8-1.6,2.3-2.4,2.3c-9.2-0.3-17.2-3.1-20.4-12.5c-2.6-7.7-4.1-15.8-5.9-23.8
			c-0.6-2.7-0.7-5.4-0.5-8.5c5.2,9.7,15.8,12.8,23,19.8c3.7,3.6,6.7,8.1,5.7,13c-1.3,6,2.3,8.8,5.7,12.5c0.4-3.2,1-6,1.2-8.9
			c0.1-1.1-0.3-2.5-1.1-3.3c-4.3-4.6-4.4-10-3-15.5c3-11.9,10-21.7,17.6-31.1c5.4-6.7,9.6-13.7,10.8-22.7c1.4,7.1,3.3,14.2,4.1,21.4
			c1.3,12,1.6,24-4.3,35.1c-4.6,8.6-11.4,14.6-22.1,16.4c0,5.6,0,11.4,0,18.3c-3.3-4.8-5.9-8.5-8.5-12.2c-0.4-0.2-0.8-0.5-1.3-0.7
			c-0.1,0.1-0.1,0.3-0.2,0.4C88.9,148.7,89.4,148.8,89.9,148.8z"/>
		<path class="st3" d="M96.5,26.3c7.6,5.1,14.4,9.6,21.8,14.5c0-7.2,0-13.7,0-20.5c2.4,0,4.6,0,7.8,0c0,7.4,0.2,14.6-0.1,21.8
			c-0.1,2.9,0.9,4.5,3.3,6.1c14.3,9.4,28.6,18.8,42.7,28.5c1.6,1.1,2.6,4,2.7,6.2c0.1,1-2.3,2.6-3.9,3.1c-1,0.3-2.7-0.5-3.9-1.3
			C144.2,69.8,121.6,55,99,39.9c-1.4-0.9-2.3-3.2-2.6-4.9C96.2,32.5,96.5,29.8,96.5,26.3z"/>
		<path class="st3" d="M94.6,25.9c0,4.3,0.2,7.4-0.1,10.5c-0.1,1.3-1.2,2.9-2.3,3.6C69.3,55.1,46.4,70.1,23.5,85.2
			c-2.8,1.9-5.7,1.5-6.9-1.2c-0.8-1.7-0.2-5.6,1.2-6.5C42.9,60.4,68.2,43.5,94.6,25.9z"/>
		<path class="st4" d="M41.8,168c-2.9,0-5.5,0-8.5,0c0-2.8,0-5.3,0-7.8c0-23.7,0.3-47.3-0.2-71c-0.2-7,3.5-9.6,8.7-12.7
			C41.8,107.3,41.8,137.5,41.8,168z"/>
		<path class="st5" d="M157.7,168.2c-3.1,0-5.5,0-8.3,0c0-30.4,0-60.7,0-91.3c5.4,2.8,8.7,5.8,8.5,12.9c-0.6,24.3-0.2,48.6-0.2,72.9
			C157.7,164.3,157.7,166,157.7,168.2z"/>
		<path class="st6" d="M95.6,174.4c-20.7,0-41.3,0-62,0c-1.3,0-2.7,0.3-3.8-0.1c-0.9-0.3-1.6-1.5-2.4-2.3c0.8-0.7,1.6-1.7,2.6-2.1
			c0.8-0.3,1.9-0.1,2.8-0.1c41.8,0,83.6,0,125.4,0c1.1,0,2.3-0.2,3.3,0.1c0.7,0.2,1.8,1.2,1.7,1.7c-0.1,0.9-0.8,2.2-1.5,2.5
			c-1.3,0.4-2.8,0.3-4.2,0.3C136.9,174.4,116.3,174.4,95.6,174.4z"/>
	</g>
</g>
<path class="st0" d="M89.9,148.8c-0.5,0-1-0.1-1.5-0.1c0.1-0.1,0.1-0.3,0.2-0.4c0.4,0.2,0.8,0.5,1.3,0.7
	C89.8,148.9,89.9,148.8,89.9,148.8z"/>
</svg>
