<?xml version="1.0" encoding="utf-8"?>
<!-- Generator: Adobe Illustrator 22.0.0, SVG Export Plug-In . SVG Version: 6.00 Build 0)  -->
<svg version="1.1" id="Слой_1" xmlns="http://www.w3.org/2000/svg" xmlns:xlink="http://www.w3.org/1999/xlink" x="0px" y="0px"
	 viewBox="0 0 192.9 192.2" style="enable-background:new 0 0 192.9 192.2;" xml:space="preserve">
<style type="text/css">
	.st0{fill:#FDB110;}
	.st1{fill:#FDAC00;}
</style>
<g>
	<path class="st0" d="M192.2,0.2c0,63.9,0,127.8,0,192c-64,0-128,0-192,0c0-63.9,0-127.8,0-192C64.6,0.2,128.4,0.2,192.2,0.2z
		 M4.1,188.2c61.7,0,122.9,0,184.1,0c0-61.5,0-122.7,0-183.9c-61.5,0-122.7,0-184.1,0C4.1,65.7,4.1,126.8,4.1,188.2z"/>
	<g>
		<path class="st1" d="M138.2,156.3c-27.6,0-55.2,0-82.9,0c-2.6-6.2-1.9-12.9-1.2-19.1c0.9-7.2,4-14,9.7-18.9
			c6.1-5.3,12.7-9.7,20-13.1c1.3-0.6,2.6-1.4,3.8-2.3c4.5-3.2,5.2-10.6,1-13.5c-2.5-1.7-5.3-3-8-4.3c-6.7-3.4-13.1-7.4-18.3-12.7
			c-3-3.1-4.9-7.2-6.6-11.5c-2.5-6.5-1.8-13-1.9-19.6c0-1.9,0.7-3.8,1.2-6.1c0.8,0,1.7,0,2.7,0c25.6,0,51.2,0,76.8,0
			c3.9,0,3.8,0,3.9,3.8c0,1.8,0.5,3.6,0.5,5.5c-0.1,4.1,0.4,8.5-0.7,12.4c-2,7.7-5.3,14.8-12.5,19.2c-4,2.5-7.8,5.4-11.8,7.9
			c-2.7,1.7-5.6,3.2-8.4,4.6c-4.8,2.4-6,8.2-3.1,12c1.6,2.1,4.7,3.2,7.1,4.7c3.9,2.4,7.9,4.7,11.6,7.4c3,2.1,5.6,4.7,8.5,6.8
			c4.2,3,6.2,7.5,7.4,12.1c1.3,4.8,1.5,9.9,1.8,14.9C139.1,149.5,138.5,152.7,138.2,156.3z M128.1,55.2c-0.4,0-0.8-0.1-1.1-0.1
			c-20.1,0-40.3,0-60.4,0c-0.5,0-1.1-0.2-1.4,0.1c-0.3,0.3-0.6,0.9-0.6,1.3c0.1,0.6,0.6,1.1,0.8,1.7c0.5,1.6,0.9,3.3,1.5,4.8
			c2.3,5.5,7.1,8.7,11.6,12.1c4.7,3.6,9.8,6.7,14.5,10.3c1.1,0.8,2.3,2.5,2.3,3.8c0.2,13.3,0.1,26.5,0,39.8c0,1-0.9,2.4-1.8,2.8
			c-4.9,2.4-9.9,4.7-15,6.7c-6.5,2.6-11.8,6.3-14,13.3c21.1,0,42,0,63.8,0c-1.8-2.8-2.9-5.7-4.9-7.4c-2.9-2.4-6.3-4.2-9.8-5.9
			c-5-2.4-10.3-4.4-15.4-6.8c-0.9-0.4-1.7-1.9-1.7-2.9c-0.1-13.1-0.1-26.2,0-39.2c0-0.8,0.6-1.8,1.3-2.4c6.3-4.9,12.6-9.8,19.1-14.5
			C123.1,68.4,126.7,62.5,128.1,55.2z"/>
		<path class="st1" d="M96.2,34.5c-15.1,0-30.2,0-45.3,0c-4.4,0-7.6-4.3-5.8-8.3c0.7-1.4,3.1-2.5,4.9-2.7c3.1-0.4,6.3-0.1,9.4-0.1
			c27.3,0,54.7,0,82,0c5.2,0,7.8,3.4,5.8,8.2c-0.8,1.8-2.7,2.9-5.1,2.9C126.8,34.5,111.5,34.5,96.2,34.5z"/>
		<path class="st1" d="M96.4,158c15.3,0,30.6,0,45.9,0c3.2,0,5,1.6,5.1,4.4c0.1,5-1.1,6.7-5.1,6.7c-30.3,0-60.6,0-90.9,0
			c-1.3,0-2.8-0.3-4-0.8c-1.9-0.8-2.9-3.7-2.3-6.3c0.4-1.9,3-4,5-4C65.4,158,80.9,158,96.4,158z"/>
	</g>
</g>
</svg>
