<?xml version="1.0" encoding="utf-8"?>
<!-- Generator: Adobe Illustrator 22.0.0, SVG Export Plug-In . SVG Version: 6.00 Build 0)  -->
<svg version="1.1" id="Слой_1" xmlns="http://www.w3.org/2000/svg" xmlns:xlink="http://www.w3.org/1999/xlink" x="0px" y="0px"
	 viewBox="0 0 192.7 192.5" style="enable-background:new 0 0 192.7 192.5;" xml:space="preserve">
<style type="text/css">
	.st0{fill:#FDB110;}
	.st1{fill:#FDFDFD;}
</style>
<path class="st0" d="M192.6,0.7c0,63.9,0,127.8,0,192c-64,0-128,0-192,0c0-63.9,0-127.8,0-192C64.9,0.7,128.7,0.7,192.6,0.7z
	 M4.4,188.6c61.7,0,122.9,0,184.1,0c0-61.5,0-122.7,0-183.9c-61.5,0-122.7,0-184.1,0C4.4,66.1,4.4,127.3,4.4,188.6z"/>
<path class="st1" d="M72.3,131.8c-5.2,2.1-8.9,5.8-11,11c0-3.7,0-7.3,0-11C65,131.8,68.6,131.8,72.3,131.8z"/>
<g>
	<path class="st0" d="M82.1,145.9c-0.2,3.3,0.3,6.1-0.6,8.2c-0.9,2-3.5,4.7-5.2,4.6c-1.8-0.1-4.1-2.9-4.9-5s-0.2-4.9-0.2-7.8
		c-1.6,0.4-2.8,1.1-3.7,0.8c-2-0.7-4.9-1.4-5.6-2.9s0.4-4.3,1.5-6.1c0.7-1.3,2.6-2,4.1-2.7c2.7-1.3,3.8-3.1,3.7-6.2
		c-0.1-7.8-4.5-13.5-12.2-15.3c-3.6-0.8-11.6,5.4-11.8,9.1c0,0.8,0,1.7,0,2.5c0.2,3.6-0.4,7.1-4.6,7.6c-4.3,0.6-5.6-2.7-6.2-7.1
		c-2.6,1.3-4.9,2.5-7.1,3.6c-3,1.6-5.5,0.9-7.3-2s-0.4-5.1,1.9-6.9c2-1.5,4.2-2.6,6.6-4.2c-0.5-0.6-0.7-1.2-1.2-1.5
		c-2.7-2.2-3.9-5.4-1.3-7.7c1.5-1.4,5.1-1.3,7.5-0.8c3.3,0.8,5.7,4.3,10,1.6c6.6-4.1,9.6-10.8,7.2-18.3c-1.1-3.5-10.5-7.3-13.8-5.6
		c-0.4,0.2-0.9,0.5-1.3,0.8c-3.2,2-6.7,4.3-9.7,0.3c-2.7-3.5-0.6-6.5,2.9-9c-2.7-1.7-5-3-7.1-4.6c-2.4-1.8-3.8-4.6-1.5-6.8
		c1.5-1.5,4.6-2.1,6.8-1.9c2.3,0.3,4.4,2.2,6.4,3.3c0.5-0.3,0.9-0.5,1-0.7c0.7-3.5,2-6.8,6.3-6.1c4.2,0.7,4.5,4.2,4.5,7.8
		c0,9,8,13.1,16.2,9.2c6.5-3,9-7.2,7.6-14c-0.3-1.6-1.4-3.1-2.4-4.4C68,57,67,56.6,66.1,56.1c-3.1-1.6-6.1-3.6-4.6-7.7
		c1.6-4.3,5.1-4.1,9.6-2.2c0-2.9-0.1-5.3,0-7.7c0.1-3.3,1.8-5.5,5.1-5.7c3.5-0.2,5.1,2.1,5.4,5.3c0.2,2.4,0.3,4.9,0.4,7.4
		c0.9-0.1,1.5,0,1.9-0.1c3.4-1.5,6-0.5,7.4,2.8c1.4,3.2-0.3,5.8-3.2,6.9c-5.5,2.1-6.7,5.8-6.5,11.3c0.2,3.9,1.3,6.4,4.9,7.7
		c6.2,2.2,8.5,6.3,7.7,13c-0.7,6.3-0.5,12.7,0,19c0.4,5-1.1,8.3-5.9,10.1c-5.3,1.9-7.2,5.4-6.7,11.1c0.3,3.8,1.3,6.2,4.7,7.8
		c3.2,1.5,6.6,3.4,5,7.9C89.8,148,86.2,147.4,82.1,145.9z M90.2,96.1c-0.7-2.8-0.5-6.6-2.3-8.2c-3.3-2.9-7.7-6.2-11.6-6
		c-4.1,0.2-8.4,3.7-12,6.6c-1.3,1-1,4.3-1,6.5c0.1,3.1-0.4,7.2,1.3,8.9c3.2,3.1,7.8,6.5,11.9,6.5c3.9,0.1,8.2-3.4,11.5-6.3
		C89.8,102.6,89.5,99.1,90.2,96.1z"/>
	<path class="st0" d="M104,96.4c0-9,0.1-18-0.1-27c-0.1-3.5,1.1-4.6,4.6-4.5c15.9,0.6,29.4,15.5,29.2,32.3
		c-0.2,16.2-13.8,30.7-29.3,31.2c-3.6,0.1-4.6-1.2-4.6-4.6C104.1,114.8,104,105.6,104,96.4z"/>
	<path class="st0" d="M145.7,84.9c8.5,3.2,16.3,6,23.9,9.1c3.1,1.3,3.1,4.2,0.1,5.4c-7.6,3.2-15.4,5.9-24,9.1
		C145.7,100.4,145.7,93.3,145.7,84.9z"/>
	<path class="st0" d="M117.5,56.4c-1.1,0.6-1.2,0.8-1.4,0.8c-11.4,2-12.1,1.4-12.1-10c0-4.3-0.1-8.7,0.1-13c0-1.1,1.1-2.1,1.6-3.1
		c0.9,0.5,2.4,0.9,2.7,1.6C111.6,40.6,114.5,48.4,117.5,56.4z"/>
	<path class="st0" d="M117.9,135.9c-3.4,9.1-6.4,17-9.5,24.8c-0.3,0.8-1.9,1.6-2.7,1.5c-0.7-0.1-1.6-1.6-1.6-2.5
		c-0.1-7-0.2-14,0.1-21c0-1,1.6-2.6,2.5-2.7C110,135.8,113.3,135.9,117.9,135.9z"/>
	<path class="st0" d="M149.1,55.4c-3.1,6.3-6.1,12.5-9.5,19.4c-3.9-4.3-7.2-7.9-11-12c6.2-3,12.5-6.1,18.8-9.2
		C148,54.1,148.6,54.8,149.1,55.4z"/>
	<path class="st0" d="M140.3,120.3c2.7,5.4,5.7,11.7,8.8,17.9c-0.5,0.6-1,1.2-1.5,1.7c-6.3-3-12.7-6.1-20.1-9.6
		C132.2,126.6,136.1,123.6,140.3,120.3z"/>
</g>
</svg>
