<?xml version="1.0" encoding="utf-8"?>
<!-- Generator: Adobe Illustrator 22.0.0, SVG Export Plug-In . SVG Version: 6.00 Build 0)  -->
<svg version="1.1" id="Слой_1" xmlns="http://www.w3.org/2000/svg" xmlns:xlink="http://www.w3.org/1999/xlink" x="0px" y="0px"
	 viewBox="0 0 192.9 191.8" style="enable-background:new 0 0 192.9 191.8;" xml:space="preserve">
<style type="text/css">
	.st0{fill:#FEFEFD;}
	.st1{fill:#FDB110;}
	.st2{fill:#FDAE04;}
</style>
<path class="st0" d="M1.8,2c0,61.7,0,123.4-0.1,185.1c0,3.5,1.1,4.6,4.6,4.6c62.2-0.1,124.4-0.1,186.6-0.1c-1.3,0.3-2.5,0.9-3.8,0.9
	c-62.6,0-125.3,0-188.2,0c0-2.4,0-4.9,0-7.3C1,125.4,1,65.6,1,5.8C1,4.5,1.5,3.3,1.8,2z"/>
<path class="st0" d="M90.8,148.8c-0.5,0-1-0.1-1.5-0.1c0.1-0.1,0.1-0.3,0.2-0.4c0.4,0.2,0.8,0.5,1.3,0.7
	C90.7,148.9,90.8,148.8,90.8,148.8z"/>
<g>
	<path class="st1" d="M192.3,0.5c0,63.9,0,127.8,0,192c-64,0-128,0-192,0c0-63.9,0-127.8,0-192C64.7,0.5,128.4,0.5,192.3,0.5z
		 M4.2,188.5c61.7,0,122.9,0,184.1,0c0-61.5,0-122.7,0-183.9c-61.5,0-122.7,0-184.1,0C4.2,66,4.2,127.1,4.2,188.5z"/>
	<g>
		<path class="st2" d="M167.9,96.5c-0.3,39.8-32,70.9-70.3,71.6c-40.2,0.7-72-31.4-73-69.7c-1-39.7,30.7-73,70.7-73.5
			C134.6,24.4,167.6,55.8,167.9,96.5z M124.3,79.2c0-0.6,0-1.1,0-1.5c0-3.3,0-6.6,0-9.9c0-3.6-1.5-5.1-5.1-5.1c-4.8,0-9.7,0-14.5,0
			c-4.8,0.1-9.6,0.3-14.3,0.3c-4.8,0-9.6-0.3-14.4-0.3c-5.3-0.1-10.6,0-15.9,0c-3.6,0-5.1,1.5-5.1,5.2c0,0.1,0,0.2,0,0.3
			c0.2,4.2,0.5,8.3,0.5,12.5s-0.3,8.4-0.4,12.6c0,1.4,0.3,2.8,0.4,4.2c0,0.2,0,0.4-0.1,0.7c-0.1,1-0.4,1.9-0.3,2.9
			c0.1,4.4,0.3,8.8,0.3,13.1c0,4.4-0.2,8.8-0.3,13.2c0,0.1,0,0.3,0,0.4c0,3.1,1.2,4.4,4.3,4.4s6.2-0.1,9.3,0
			c3.1,0.1,6.1-0.2,9.2-0.1c8.7,0.2,17.5,0.1,26.2,0.1c1.1,0,2.4-0.8,3.4-0.5c3.4,1,6.8,0.4,10.2,0.5c6.6,0.1,13.2,0,19.7,0
			c2.7,0,4.5-1.4,4.6-3.9c0.1-4,0.1-8.1,0-12.1c-0.1-2.5-1.8-3.9-4.4-4c-3.9,0-7.7,0-11.6,0c-0.5,0-1,0-1.5,0c0-4.4,0-8.6,0-12.9
			c0.6,0,1.1,0,1.6,0c3.9,0,7.8,0,11.7,0c2.4,0,4.1-1.4,4.2-3.8c0.1-4.1,0.1-8.2,0-12.3c-0.1-2.4-1.7-3.8-4.2-3.8
			c-3.1,0-6.3,0-9.4,0C126.8,79.2,125.7,79.2,124.3,79.2z"/>
		<g>
			<path class="st2" d="M123.7,82.7c4.4,0,8.8,0,13.2,0c1.1,0,1.5,0.3,1.5,1.4c-0.1,3.3-0.1,6.7,0,10c0,1.1-0.3,1.5-1.5,1.5
				c-8.9-0.1-17.8-0.1-26.6-0.1c-1,0-1.3-0.3-1.3-1.3c0.1-3.4,0-6.9,0-10.3c0-1,0.3-1.3,1.3-1.3C114.7,82.7,119.2,82.7,123.7,82.7z"
				/>
			<path class="st2" d="M90.8,82.7c4.4,0,8.8,0,13.2,0c1,0,1.3,0.2,1.3,1.3c-0.1,3.5,0,6.9,0,10.4c0,1-0.4,1.2-1.3,1.2
				c-8.9,0-17.8,0-26.8,0c-1,0-1.4-0.4-1.4-1.4c0.1-3.3,0.1-6.6,0-9.9c0-1.2,0.3-1.6,1.6-1.6C81.9,82.7,86.3,82.7,90.8,82.7z"/>
			<path class="st2" d="M109.1,115.7c0.5,0,0.9-0.1,1.3-0.1c8.7,0,17.4-0.1,26.1-0.1c1.9,0,1.9,0,1.9,1.9c0,3.1,0,6.3,0,9.4
				c0,1.2-0.3,1.7-1.6,1.7c-8.8,0-17.6,0-26.3,0c-1.1,0-1.5-0.3-1.5-1.5c0.1-3.4,0-6.8,0-10.1C108.9,116.6,109.1,116.2,109.1,115.7z
				"/>
			<path class="st2" d="M105.3,115.9c0,3.9,0,7.8,0,11.6c0,0.4-0.6,0.9-0.9,1c-0.9,0.1-1.9,0.1-2.8,0.1c-7.9,0-15.8,0-23.7,0
				c-1.9,0-1.9,0-1.9-1.9c0-3.2,0-6.5,0-9.7c0-0.7,0.1-1.3,1-1.3c9.2,0,18.5,0,27.7,0C104.8,115.7,105.1,115.8,105.3,115.9z"/>
			<path class="st2" d="M105.8,112c-4.4,0-8.7,0-13.1,0c-1.1,0-1.5-0.3-1.5-1.4c0.1-3.3,0.1-6.7,0-10c0-1.1,0.4-1.4,1.5-1.4
				c8.8,0,17.6,0,26.3,0c1.1,0,1.6,0.3,1.6,1.5c-0.1,3.3-0.1,6.6,0,9.9c0,1.2-0.4,1.5-1.6,1.5C114.8,112,110.3,112,105.8,112z"/>
			<path class="st2" d="M73.1,112c-4.4,0-8.8,0-13.2,0c-1,0-1.4-0.3-1.4-1.4c0-3.4,0-6.9,0-10.3c0-0.9,0.4-1.2,1.3-1.2
				c9,0,17.9,0,26.9,0c0.8,0,1.2,0.3,1.2,1.1c0,3.5,0,7,0,10.6c0,1-0.4,1.2-1.3,1.2C81.9,112,77.4,112,73.1,112z"/>
			<path class="st2" d="M72.9,79.1c-4.4,0-8.7,0-13.1,0c-1.2,0-1.5-0.4-1.5-1.5c0.1-3.2,0.1-6.5,0-9.7c0-1.2,0.3-1.7,1.6-1.7
				c8.7,0,17.5,0,26.2,0c1.1,0,1.6,0.3,1.6,1.5c-0.1,3.3,0,6.7,0,10c0,0.9-0.1,1.4-1.2,1.4C82.1,79,77.4,79.1,72.9,79.1z"/>
			<path class="st2" d="M105.9,79.1c-4.4,0-8.7,0-13.1,0c-1.2,0-1.6-0.3-1.5-1.5c0.1-3.3,0.1-6.7,0-10c0-1,0.3-1.4,1.4-1.4
				c8.8,0,17.7,0,26.5,0c1.1,0,1.5,0.4,1.5,1.5c0,3.3,0,6.7,0,10c0,0.7,0,1.4-1.1,1.4C115.1,79,110.6,79.1,105.9,79.1z"/>
			<path class="st2" d="M58.3,82.8c4.8,0,9.3,0,13.9,0c0,4.2,0,8.4,0,12.8c-1,0-1.9,0-2.8,0c-3.3,0-6.6,0-9.9,0
				c-0.6,0-1.3,0.1-1.2-0.9C58.3,90.7,58.3,86.8,58.3,82.8z"/>
			<path class="st2" d="M58.5,128.4c0-4.2,0-8.4,0-12.6c4.6,0,9.2,0,13.8,0c0,4.2,0,8.4,0,12.6C67.7,128.4,63.2,128.4,58.5,128.4z"
				/>
		</g>
	</g>
</g>
</svg>
