<?xml version="1.0" encoding="utf-8"?>
<!-- Generator: Adobe Illustrator 22.0.0, SVG Export Plug-In . SVG Version: 6.00 Build 0)  -->
<svg version="1.1" id="Слой_1" xmlns="http://www.w3.org/2000/svg" xmlns:xlink="http://www.w3.org/1999/xlink" x="0px" y="0px"
	 viewBox="0 0 190.8 190" style="enable-background:new 0 0 190.8 190;" xml:space="preserve">
<style type="text/css">
	.st0{fill:#FCB51D;}
	.st1{fill:#FCAF0A;}
	.st2{fill:#FCAD04;}
</style>
<g>
	<path class="st0" d="M1.1,189.9c-0.1-1.5-0.3-3-0.3-4.5c0-60.3,0-120.5,0-180.8c0-1.3,0-2.6,0-4.3C2.5,0.2,3.9,0,5.3,0
		c60.3,0,120.5,0,180.8,0c1.5,0,3,0.2,4.5,0.3c0,62.9,0,125.8,0,189.5C127.1,189.9,64.1,189.9,1.1,189.9z M186.1,185.2
		c0-60.5,0-120.7,0-180.8c-60.6,0-120.8,0-181.1,0c0,60.4,0,120.5,0,180.8C65.5,185.2,125.7,185.2,186.1,185.2z"/>
	<path class="st1" d="M87.8,30.2c-1.5-0.5-2.9-1.1-4.4-1.4c-5.2-1.3-6.2-2.9-5.7-8.7c0.3-4.4,3.1-5.4,6.8-5.4c7.7,0,15.3,0.1,23,0
		c4.5,0,6.2,2.4,6.3,6.6c0.1,4.1-0.9,7.2-5.8,7.8c-1.6,0.2-3.2,1-4.8,1.5c0,0.4,0,0.9,0,1.3c1.6,0.7,3.1,1.5,4.7,2
		c3,0.9,6.2,1.5,9.2,2.3c6.3,1.9,13.1,5.5,15.9-5.1c6,4.1,11.2,7.7,16.2,11.1c-0.1,0.7,0,1.2-0.2,1.4c-4.5,4.8-3.1,9,0.7,13.8
		c8.4,10.7,14.4,22.6,16.7,36.3c6.2,36.4-21.2,74.7-57.8,80.3c-44.2,6.7-81.3-22.9-84.4-67.5C21.8,74,46.8,41.6,80.2,34
		c2.6-0.6,5.1-1.5,7.7-2.3C87.9,31.2,87.8,30.7,87.8,30.2z M155.3,102.5c-2-35.1-29.3-60.2-63.5-58.4c-32.2,1.7-57.7,30.4-56,62.9
		c1.7,32.5,30.1,58.4,62.3,56.8C130.6,162.3,157.1,133.8,155.3,102.5z"/>
	<path class="st2" d="M139.7,126c-14.1-7.5-27.6-14.7-41-22.1c-1.4-0.8-2.8-3.1-2.8-4.7c-0.2-14.8-0.1-29.6-0.1-45
		c16.5,0.3,29.7,6.6,39.4,19.8C146.9,90.2,147.9,107.3,139.7,126z"/>
</g>
</svg>
