<?xml version="1.0" encoding="utf-8"?>
<!-- Generator: Adobe Illustrator 22.0.0, SVG Export Plug-In . SVG Version: 6.00 Build 0)  -->
<svg version="1.1" id="Слой_1" xmlns="http://www.w3.org/2000/svg" xmlns:xlink="http://www.w3.org/1999/xlink" x="0px" y="0px"
	 viewBox="0 0 191.9 192.3" style="enable-background:new 0 0 191.9 192.3;" xml:space="preserve">
<style type="text/css">
	.st0{fill:#FDB110;}
	.st1{fill:#FFFFFF;}
</style>
<path class="st0" d="M191.8,0.3c0,63.9,0,127.8,0,192c-64,0-128,0-192,0c0-63.9,0-127.8,0-192C64.2,0.3,128,0.3,191.8,0.3z
	 M3.7,188.3c61.7,0,122.9,0,184.1,0c0-61.5,0-122.7,0-183.9c-61.5,0-122.7,0-184.1,0C3.7,65.8,3.7,126.9,3.7,188.3z"/>
<path class="st0" d="M112.8,81.3c2.7,4.8,5.2,8.9,7.3,13.3c4.4,9.5,6,19.4,2.5,29.6c-3.1,9.1-8.9,16.2-17.8,20.4
	c-12.1,5.8-26.4,2.2-35.4-8.9c-1.7-2.1-3.1-4.4-4.7-6.7c-0.5,0.4-1,0.9-1.5,1.3c-8.7,8.5-17.4,17.1-26.1,25.6
	c-0.4,0.4-0.8,1-1.3,1.1c-1,0.1-2.3,0.3-2.9-0.3c-0.5-0.5-0.3-1.9-0.2-2.8c0.1-0.5,0.7-0.8,1.1-1.2c9.2-9.1,18.5-18.2,27.8-27.2
	c0.9-0.9,1.2-1.6,0.9-2.9c-2.7-10.4-1.1-20.4,3.8-29.8c2.8-5.4,6.2-10.5,9.5-15.6c6.9-10.3,12.4-21.1,14.8-33.3
	c0.2-1.3,0.9-2.1,2.3-2c1.3,0,1.9,0.8,2.1,2c2.2,12.4,7.8,23.5,15.2,33.9c0.5-0.5,1.1-1,1.6-1.5c13.9-13.6,27.7-27.2,41.6-40.8
	c0.4-0.4,0.7-0.7,1.1-1.1c1-0.8,2.1-0.9,3.1,0s0.9,2,0.1,3c-0.4,0.5-0.9,0.9-1.3,1.4c-14,13.7-28,27.5-42,41.2
	C113.8,80.7,113.2,81.1,112.8,81.3z M109.7,85c-0.3,0.1-0.4,0.1-0.5,0.2c-13.5,13.2-27,26.4-40.4,39.7c-0.4,0.4-0.5,1.5-0.2,1.9
	c1.6,2.6,3.1,5.4,5.2,7.6c6.4,6.9,14.3,10.2,23.8,8.3c12.8-2.6,22.7-16,22.6-29.5C120.1,102.6,115.8,93.6,109.7,85z M93,53.3
	c-2.2,5-4,10-6.6,14.5c-4,7.1-8.6,13.9-12.9,20.8c-5.3,8.4-8.6,17.4-7.9,27.5c0.1,1.5,0.5,3.1,0.8,4.9
	c13.6-13.3,26.8-26.2,39.9-39.2c0.3-0.3,0.4-1.4,0.1-1.8C100.8,71.6,95.9,62.9,93,53.3z"/>
<path class="st0" d="M109.7,85c6,8.5,10.4,17.6,10.5,28.1c0.1,13.5-9.8,27-22.6,29.5c-9.6,1.9-17.5-1.3-23.8-8.3
	c-2.1-2.2-3.5-5-5.2-7.6c-0.3-0.5-0.2-1.5,0.2-1.9c13.4-13.3,26.9-26.5,40.4-39.7C109.3,85.2,109.5,85.2,109.7,85z M110,115.5
	c0.1-3.5-0.4-4.5-1.9-4.5c-1.7,0-2.2,1.1-2.3,2.6c-0.4,7.2-3,13-10.9,15c-1.2,0.3-1.8,1.4-1.3,2.5c0.4,0.7,1.5,1.4,2.3,1.4
	c1.3,0,2.6-0.5,3.8-1.1C106.8,127.9,109.3,121.7,110,115.5z"/>
<path class="st0" d="M93,53.3c2.9,9.7,7.8,18.3,13.4,26.6c0.3,0.4,0.3,1.5-0.1,1.8c-13.2,13-26.4,25.9-39.9,39.2
	c-0.3-1.9-0.7-3.4-0.8-4.9c-0.7-10.1,2.6-19.1,7.9-27.5c4.4-6.9,8.9-13.7,12.9-20.8C89,63.2,90.8,58.3,93,53.3z"/>
<path class="st1" d="M107.1,81.1c0.4-0.4,2.4-2.5,2.4-2.5c1.1-1.2,0.9-0.3,2.1,1.3c1,1.3,1.4,1.4,0.7,2.2c-0.4,0.5-1.8,2-2.2,2.4
	c-14.2,14-28.4,27.9-42.6,41.9c-0.5,0.5-2.9,3.1-3.1,2.7c-1.4-2.2-1.5-3.4-1.7-4.7"/>
</svg>
