<?xml version="1.0" encoding="utf-8"?>
<!-- Generator: Adobe Illustrator 22.0.0, SVG Export Plug-In . SVG Version: 6.00 Build 0)  -->
<svg version="1.1" id="Слой_1" xmlns="http://www.w3.org/2000/svg" xmlns:xlink="http://www.w3.org/1999/xlink" x="0px" y="0px"
	 viewBox="0 0 193.1 191.9" style="enable-background:new 0 0 193.1 191.9;" xml:space="preserve">
<style type="text/css">
	.st0{fill:#FEFEFE;}
	.st1{fill:#FDB110;}
</style>
<path class="st0" d="M192.7,0.4c-63.8,0-127.6,0-192,0c0,64.2,0,128.1,0,192c-0.3-1.3-0.9-2.6-0.9-3.8c0-63,0-125.9,0-189.1
	c2.5,0,5,0,7.4,0c60.6,0,121.1,0,181.7,0C190.2-0.5,191.4,0.1,192.7,0.4z"/>
<g>
	<path class="st1" d="M192.4,0.5c0,63.9,0,127.8,0,192c-64,0-128,0-192,0c0-63.9,0-127.8,0-192C64.8,0.5,128.6,0.5,192.4,0.5z
		 M4.3,188.5c61.7,0,122.9,0,184.1,0c0-61.5,0-122.7,0-183.9c-61.5,0-122.7,0-184.1,0C4.3,66,4.3,127.1,4.3,188.5z"/>
	<g>
		<path class="st1" d="M53.4,141.5c-3.5,3.3-7,6.7-10.5,10.1c-6.2,6-12.4,12-18.6,18c-1.5,1.4-1.9,3-0.3,4.4c1.8,1.5,3.6,1,5.2-0.4
			c0.5-0.4,0.9-0.9,1.3-1.3c6.5-6.3,13.1-12.6,19.6-19c2.5-2.5,4.5-4.5,6.9-7L53.4,141.5z"/>
		<path class="st1" d="M120.3,84.8c0.3,1.6,0.3,2.9,1.3,2.4c4.2-2.1,11.8-11.8,14.5-15.7c0.4,8.3,1.2,13.9,1.5,22
			c7.5-1.7,13.4-6.3,20.6-9.6c-0.8,1.7-1.4,3-2,4.3c-4.2,7.8-4.6,15.9-3.3,24.5c2.6,16.8-4.4,29.7-18.1,39.7
			c-7.4,5.4-16.1,7.5-25.1,8.7c-14.4,2-28.2,0.7-41.2-6.1c-4.5-2.4-8.6-5.1-11.7-8.7"/>
		<path class="st1" d="M100.3,28c5.8,6.9,9.9,14.8,12.4,23.2c2.4,8.3,4.2,17.3,6,25.9c0.2,0.8-0.8,1.6-1.5,2.2
			c-7.7,7.5-15.4,14.9-23.1,22.4c-13,12.6-26.1,25.2-39.1,37.8c-0.6,0.6-1.1,1.3-1.6,2C40,128.3,37.5,88,49.2,74.5
			c0.5,8.3,3.3,15.6,8.4,21.9c4,5,8.6,9.6,12.9,14.4c0.2-0.2,0.5-0.3,0.7-0.5c-0.7-3.9-1.5-7.9-2.2-11.8
			c-2.1-11.1-3.5-22.2-1.2-33.4c1.9-9.2,8.6-21,15.5-26.2c-0.4,3-0.5,6-1.1,8.9C80.6,56,82.8,62.9,90,68.2
			c4.3-5.3,7.4-11.1,9.1-17.6c1.9-7.4,1.3-14.9,0.6-22.3C100,28.3,100.1,28.2,100.3,28z"/>
		<path class="st1" d="M120.3,84.9c3.4-3.3,8.4-8,11.8-11.3c6-5.8,31.7-31.3,37.7-37.1c1.4-1.4,1.8-2.9,0.2-4.2
			c-1.8-1.4-3.6-0.9-5.1,0.5c-0.5,0.4-20.6,20.4-21,20.9c-6.3,6.1-12.6,12.3-18.9,18.4c-2.4,2.4-1.9,1.9-6.2,5.4
			C118.3,77.8,120.3,84.9,120.3,84.9z"/>
	</g>
</g>
</svg>
