<?xml version="1.0" encoding="utf-8"?>
<!-- Generator: Adobe Illustrator 22.0.0, SVG Export Plug-In . SVG Version: 6.00 Build 0)  -->
<svg version="1.1" id="Слой_1" xmlns="http://www.w3.org/2000/svg" xmlns:xlink="http://www.w3.org/1999/xlink" x="0px" y="0px"
	 viewBox="0 0 191 191.9" style="enable-background:new 0 0 191 191.9;" xml:space="preserve">
<style type="text/css">
	.st0{fill:#FEFEFE;}
	.st1{fill:#FDB10D;}
	.st2{fill:#FEAE00;}
	.st3{fill:#FDAC00;}
</style>
<path class="st0" d="M1,1C0.8,2.1,0.4,3.2,0.4,4.3c0,61.4,0,122.7-0.1,184.1c0,2.6,0.7,3.4,3.4,3.4c61.2-0.1,122.3-0.1,183.5-0.1
	c1.3,0,2.7-0.4,4-0.6c-0.2,0.4-0.3,1.1-0.7,1.2c-0.7,0.2-1.5,0.1-2.2,0.1c-62.9,0-125.7,0-188.6,0c0-63,0-126,0.1-188.9
	C-0.2,2.7-1.5,0.8,1,1z"/>
<path class="st1" d="M188.7,1c-1.2,0.2-2.5,0.6-3.7,0.6c-59.7,0-119.3,0-179,0C4.8,1.6,3.5,1.2,2.3,1C64.4,1,126.6,1,188.7,1z"/>
<path class="st1" d="M191.2,188c-0.2-1.2-0.6-2.5-0.6-3.7c0-58.4,0-116.8,0-175.2c0-1.2,0.4-2.5,0.6-3.7
	C191.2,66.3,191.2,127.2,191.2,188z"/>
<g>
	<path class="st2" d="M191.2,188c0,1.1,0,2.1,0,3.2c-1.3,0.2-2.7,0.6-4,0.6c-61.2,0-122.3,0-183.5,0.1c-2.7,0-3.4-0.8-3.4-3.4
		c0.1-61.4,0-122.7,0.1-184.1c0-1.1,0.4-2.2,0.6-3.3c0.4,0,0.8,0,1.3,0C3.5,1.3,4.8,1.7,6,1.7c59.7,0,119.3,0,179,0
		c1.2,0,2.5-0.4,3.7-0.6c0.8,0,1.7,0,2.5,0c0,1.5,0,3,0,4.5c-0.2,1.2-0.6,2.5-0.6,3.7c0,58.4,0,116.8,0,175.2
		C190.6,185.6,191,186.8,191.2,188z M3.7,188.4c0.8,0.1,1.2,0.1,1.6,0.1c59.9,0,119.8,0,179.7,0.1c2.8,0,3-1.2,3-3.5
		c0-58.9-0.1-117.9,0-176.8c0-3.2-0.8-4.1-4-4.1C125.1,4.3,66.1,4.3,7.2,4.3c-1.1,0-2.2,0-3.4,0C3.7,65.9,3.7,127,3.7,188.4z"/>
	<g>
		<path class="st3" d="M97.6,172.4c-2.5-2.4-5-4.8-7.4-7.2c19.3-18.8,29.6-41.9,29.6-68.7c0.1-26.9-10.2-49.9-29.4-68.7
			c2.4-2.2,4.9-4.7,7.5-7.1C141.5,61.4,141.2,131.8,97.6,172.4z"/>
		<path class="st3" d="M84.7,34c12.9,12.8,22,28.3,25.2,47c1.4,8.4,1.5,16.8,0.7,25.4c-0.9,10.2-3.8,19.7-8.4,28.8
			c-4.2,8.2-9.5,15.7-16,22.2c-1.5,1.5-2.6,1.8-4.1,0.1c-1.7-1.9-3.7-3.5-5.6-5.3c16.1-15.4,24.2-34,24.3-55.6
			c0-21.6-8.1-40.3-23.8-55.5C79.3,38.8,81.9,36.5,84.7,34z"/>
		<path class="st3" d="M139.3,20.2c2.9,0,5.7,0,8.5,0c0,50.8,0,101.4,0,152.3c-2.7,0-5.5,0-8.5,0C139.3,121.9,139.3,71.2,139.3,20.2
			z"/>
		<path class="st3" d="M63.4,138.1c12.3-11.1,18.3-25.5,18.3-41.8c0-16.2-6.2-30.4-19.3-42.5c2.3-1.8,4.5-3.3,6.4-5.2
			c1.4-1.3,2.3-1.6,3.6-0.1c9.9,10.9,17,23.1,19,38c2.6,19.4-2.1,36.7-14,52.1c-0.8,1.1-2,1.9-2.9,2.9c-4.4,4.8-4.3,4.8-8.6-0.3
			C65.2,140.3,64.4,139.4,63.4,138.1z"/>
		<path class="st3" d="M56.7,132.3c-2.3-2.6-4.6-5.1-6.8-7.7c8.5-7.6,12.6-17.3,12.6-28.1s-4-20.6-12.6-28.2
			c2.3-2.5,4.5-5.1,6.8-7.6C77.9,77.6,78.9,114,56.7,132.3z"/>
		<path class="st3" d="M53.8,96.3c0.4,8.3-2.8,15.2-8.5,21c-1.4,1.5-2.5,2.2-3.8-0.3c-0.9-1.7-2.3-3.4-3.8-4.5c-1.8-1.3-1-2,0-2.9
			c7.4-6.4,7-20.6-0.1-26.6c-1.1-0.9-1.6-1.7,0.1-2.9c1.6-1.1,2.9-2.8,3.8-4.5c1.2-2.2,2.2-1.7,3.6-0.3C50.9,81.2,54.2,88,53.8,96.3
			z"/>
	</g>
</g>
</svg>
